# xmcd
#
# Track frame offsets:
#	150
#	19865
#	34311
#	51055
#	70937
#	85430
#	103893
#	121055
#	137225
#
# Disc length: 2078 seconds
# Revision: 0
# Processed by: cddbd v1.5.2PL0 Copyright (c) Steve Scherf et al.
# Submitted via: dBpowerAMP V12.0
#
DISCID=7d081c09
DTITLE=Jesse Valach and Blues Mountain - Jesse Valach Presents... Blues Mountain
DYEAR=2012
DGENRE=Blues Soul
TTITLE0=Set it Off
TTITLE1=Anything is Possible
TTITLE2=Wanted You There
TTITLE3=Cold Shoulder
TTITLE4=Waiting on my Own
TTITLE5=Can't Take Another Day
TTITLE6=Baby it Won't be Long
TTITLE7=It Ain't Wrong
TTITLE8=Have You Ever
EXTD=
EXTT0=
EXTT1=
EXTT2=
EXTT3=
EXTT4=
EXTT5=
EXTT6=
EXTT7=
EXTT8=
PLAYORDER=
